<svg width="192" height="192" viewBox="0 0 192 192" fill="none" xmlns="http://www.w3.org/2000/svg">
<path d="M112.572 31.8624C128.415 31.8624 141.229 44.2609 141.229 59.5479V87.2735H83.9144V59.5479C83.9144 44.2609 96.7278 31.8624 112.572 31.8624ZM162.051 87.4743V59.3475C162.051 32.9458 139.887 11.5195 112.572 11.5195C85.2565 11.5195 63.0924 32.9458 63.0924 59.3475V87.4743C53.4824 88.7584 46.0801 96.6627 46.0801 106.293V169.608C46.0801 180.081 54.9109 188.627 65.7766 188.627H159.367C170.232 188.627 179.063 180.081 179.063 169.608V106.293C179.063 96.6627 171.661 88.7584 162.051 87.4743Z" fill="#171619"/>
<path d="M97.2113 24.1827C113.055 24.1827 125.868 36.581 125.868 51.8683V79.5938H68.5541V51.8683C68.5541 36.581 81.3674 24.1827 97.2113 24.1827ZM146.69 79.7947V51.6678C146.69 25.2661 124.526 3.83984 97.2113 3.83984C69.8962 3.83984 47.7321 25.2661 47.7321 51.6678V79.7947C38.1221 81.0788 30.7197 88.983 30.7197 98.613V161.928C30.7197 172.401 39.5506 180.947 50.4162 180.947H144.006C154.872 180.947 163.703 172.401 163.703 161.928V98.613C163.703 88.983 156.3 81.0788 146.69 79.7947Z" fill="#3F72AF"/>
<path d="M136.497 144.131C136.497 149.171 135.637 153.771 133.917 157.931C132.197 162.091 129.857 165.671 126.897 168.671C123.937 171.631 120.457 173.931 116.457 175.571C112.497 177.211 108.237 178.031 103.677 178.031C99.1571 178.031 94.8974 177.191 90.8972 175.511C86.9374 173.831 83.4572 171.491 80.4574 168.491C77.4972 165.491 75.1571 161.931 73.4371 157.811C71.7172 153.651 70.8574 149.091 70.8574 144.131V87.0107H87.2972V117.011C88.1774 115.891 89.2372 114.891 90.4771 114.011C91.7574 113.131 93.1171 112.411 94.5571 111.851C96.0371 111.291 97.5573 110.871 99.1171 110.591C100.677 110.271 102.197 110.111 103.677 110.111C108.237 110.111 112.497 110.971 116.457 112.691C120.457 114.371 123.937 116.731 126.897 119.771C129.857 122.811 132.197 126.411 133.917 130.571C135.637 134.691 136.497 139.211 136.497 144.131ZM119.997 144.131C119.997 141.651 119.557 139.351 118.677 137.231C117.837 135.071 116.677 133.211 115.197 131.651C113.717 130.091 111.977 128.871 109.977 127.991C108.017 127.111 105.917 126.671 103.677 126.671C101.437 126.671 99.3172 127.171 97.3173 128.171C95.3574 129.131 93.6371 130.431 92.1571 132.071C90.6772 133.671 89.5171 135.531 88.6773 137.651C87.8371 139.731 87.4174 141.891 87.4174 144.131C87.4174 146.611 87.8371 148.911 88.6773 151.031C89.5171 153.151 90.6772 154.991 92.1571 156.551C93.6371 158.111 95.3574 159.351 97.3173 160.271C99.3172 161.151 101.437 161.591 103.677 161.591C105.917 161.591 108.017 161.151 109.977 160.271C111.977 159.351 113.717 158.111 115.197 156.551C116.677 154.991 117.837 153.151 118.677 151.031C119.557 148.911 119.997 146.611 119.997 144.131Z" fill="#F9F7F7"/>
</svg>
