<svg width="26" height="17" viewBox="0 0 26 17" fill="none" xmlns="http://www.w3.org/2000/svg">
<mask id="mask0_125_2099" style="mask-type:luminance" maskUnits="userSpaceOnUse" x="0" y="0" width="26" height="17">
<path d="M0 0H25.1852V17H0V0Z" fill="white"/>
</mask>
<g mask="url(#mask0_125_2099)">
<path d="M23.3353 6.66322H6.33858C6.33858 6.66322 9.9196 3.14123 10.0147 3.01989C10.2606 2.70836 10.4082 2.31484 10.4082 1.89181C10.4082 1.41958 10.2279 0.993272 9.93599 0.66534L9.78514 0.517771C9.45393 0.225911 9.02434 0.0488281 8.54884 0.0488281C8.06022 0.0488281 7.61751 0.235749 7.28302 0.540726C7.28302 0.540726 0.425962 7.32564 0.393169 7.37155C0.1505 7.68309 0.00292969 8.07005 0.00292969 8.49636C0.00292969 8.91939 0.150499 9.30635 0.38989 9.61789C0.488269 9.7425 7.36828 16.5307 7.36828 16.5307C7.68966 16.7898 8.09629 16.9406 8.539 16.9406C9.56543 16.9406 10.3984 16.1175 10.3984 15.1009C10.3984 14.6549 10.2377 14.245 9.97207 13.9269L6.33858 10.3262H23.3353C24.3552 10.3262 25.1848 9.50639 25.1848 8.49636C25.1848 7.48305 24.3552 6.66322 23.3353 6.66322Z" fill="#112D4E"/>
</g>
</svg>
