<svg width="22" height="24" viewBox="0 0 22 24" fill="none" xmlns="http://www.w3.org/2000/svg">
<path fill-rule="evenodd" clip-rule="evenodd" d="M1.76345 0.826998C0.884766 1.65398 0.884766 2.98501 0.884766 5.64706V18.3529C0.884766 21.015 0.884766 22.346 1.76345 23.173C2.64212 24 4.05634 24 6.88477 24H15.8848C18.7132 24 20.1274 24 21.0061 23.173C21.8848 22.346 21.8848 21.015 21.8848 18.3529V5.64706C21.8848 2.98501 21.8848 1.65398 21.0061 0.826998C20.1274 2.38419e-07 18.7132 0 15.8848 0H6.88477C4.05634 0 2.64212 2.38419e-07 1.76345 0.826998ZM6.88477 5.64706C6.05635 5.64706 5.38477 6.27913 5.38477 7.05882C5.38477 7.83851 6.05635 8.47059 6.88477 8.47059H15.8848C16.7132 8.47059 17.3848 7.83851 17.3848 7.05882C17.3848 6.27913 16.7132 5.64706 15.8848 5.64706H6.88477ZM6.88477 11.2941C6.05635 11.2941 5.38477 11.9262 5.38477 12.7059C5.38477 13.4856 6.05635 14.1176 6.88477 14.1176H15.8848C16.7132 14.1176 17.3848 13.4856 17.3848 12.7059C17.3848 11.9262 16.7132 11.2941 15.8848 11.2941H6.88477ZM6.88477 16.9412C6.05635 16.9412 5.38477 17.5732 5.38477 18.3529C5.38477 19.1327 6.05635 19.7647 6.88477 19.7647H12.8848C13.7132 19.7647 14.3848 19.1327 14.3848 18.3529C14.3848 17.5732 13.7132 16.9412 12.8848 16.9412H6.88477Z" fill="#3F72AF"/>
</svg>
