<svg width="29" height="24" viewBox="0 0 29 24" fill="none" xmlns="http://www.w3.org/2000/svg">
<path fill-rule="evenodd" clip-rule="evenodd" d="M0.905299 7.1165C0.884766 8.04038 0.884766 9.08931 0.884766 10.2857V13.7143C0.884766 18.563 0.884766 20.9873 2.2516 22.4937C3.61844 24 5.81832 24 10.2181 24H19.5514C23.9512 24 26.151 24 27.5179 22.4937C28.8848 20.9873 28.8848 18.563 28.8848 13.7143V10.2857C28.8848 9.08931 28.8848 8.04038 28.8642 7.1165L16.3957 14.7504C15.456 15.3255 14.3136 15.3255 13.3739 14.7504L0.905299 7.1165ZM1.26272 3.4795C1.39163 3.51518 1.5185 3.56978 1.64021 3.6443L14.8848 11.7531L28.1294 3.6443C28.251 3.56978 28.378 3.51518 28.5068 3.4795C28.3047 2.66775 27.9944 2.03127 27.5179 1.50631C26.151 4.08718e-07 23.9512 0 19.5514 0H10.2181C5.81832 0 3.61844 4.08718e-07 2.2516 1.50631C1.77524 2.03127 1.46489 2.66775 1.26272 3.4795Z" fill="#3F72AF"/>
</svg>
