<svg width="26" height="30" viewBox="0 0 26 30" fill="none" xmlns="http://www.w3.org/2000/svg">
<path d="M0 26.6015C0 26.9832 0.0717448 27.3535 0.222786 27.7088C0.370052 28.064 0.581511 28.3776 0.857161 28.6497C1.12904 28.9218 1.44622 29.1334 1.80495 29.2808C2.16367 29.4282 2.5375 29.5 2.92643 29.5H16.5882C16.9771 29.5 17.3509 29.4282 17.7096 29.2808C18.0684 29.1334 18.3855 28.9218 18.6612 28.6497C18.9331 28.3776 19.1445 28.064 19.2956 27.7088C19.4428 27.3535 19.5184 26.9832 19.5184 26.6015V25.6341H22.4448C22.8337 25.6341 23.2076 25.5585 23.5663 25.4111C23.925 25.2675 24.2422 25.0559 24.5141 24.7838C24.7897 24.5117 25.0012 24.1981 25.1522 23.8428C25.2995 23.4876 25.375 23.1173 25.375 22.7318V3.39849C25.375 3.01681 25.2995 2.64647 25.1522 2.29124C25.0012 1.93602 24.7897 1.62236 24.5141 1.35027C24.2422 1.07819 23.925 0.866563 23.5663 0.719182C23.2076 0.571802 22.8337 0.5 22.4448 0.5H8.78307C8.39414 0.5 8.02031 0.571802 7.66159 0.719182C7.30286 0.866563 6.98568 1.07819 6.71003 1.35027C6.43815 1.62236 6.22669 1.93602 6.07565 2.29124C5.92839 2.64647 5.85286 3.01681 5.85286 3.39849V4.36591H2.92643C2.5375 4.36591 2.16367 4.44149 1.80495 4.58887C1.44622 4.73247 1.12904 4.9441 0.857161 5.21618C0.581511 5.48827 0.370052 5.80193 0.222786 6.15715C0.0717448 6.51238 0 6.88272 0 7.26818V26.6015ZM7.80508 3.39849C7.80508 3.27 7.83151 3.14907 7.8806 3.02815C7.92969 2.911 8.00143 2.80519 8.09206 2.71449C8.18268 2.62379 8.28841 2.55577 8.40924 2.50665C8.53008 2.45752 8.65091 2.43107 8.78307 2.43107H22.4448C22.5732 2.43107 22.6978 2.45752 22.8186 2.50665C22.9395 2.55577 23.0452 2.62379 23.1358 2.71449C23.2264 2.80519 23.2982 2.911 23.3473 3.02815C23.3964 3.14907 23.4228 3.27 23.4228 3.39849V22.7318C23.4228 22.8603 23.3964 22.985 23.3473 23.1022C23.2982 23.2231 23.2264 23.3251 23.1358 23.4158C23.0452 23.5065 22.9395 23.5783 22.8186 23.6274C22.6978 23.6766 22.5732 23.6992 22.4448 23.6992H19.5184V7.26818C19.5184 6.88272 19.4428 6.51238 19.2956 6.15715C19.1445 5.80193 18.9331 5.48827 18.6612 5.21618C18.3855 4.9441 18.0684 4.73247 17.7096 4.58887C17.3509 4.44149 16.9771 4.36591 16.5882 4.36591H7.80508V3.39849ZM1.95221 7.26818C1.95221 7.13969 1.97487 7.01499 2.02396 6.89784C2.07305 6.77691 2.14479 6.67488 2.23542 6.58418C2.32604 6.49348 2.43177 6.42168 2.5526 6.37256C2.67344 6.32343 2.79805 6.30076 2.92643 6.30076H16.5882C16.7203 6.30076 16.8449 6.32343 16.962 6.37256C17.0828 6.42168 17.1885 6.49348 17.2792 6.58418C17.3698 6.67488 17.4415 6.77691 17.4906 6.89784C17.5397 7.01499 17.5661 7.13969 17.5661 7.26818V26.6015C17.5661 26.73 17.5397 26.8509 17.4906 26.9719C17.4415 27.089 17.3698 27.1948 17.2792 27.2855C17.1885 27.3762 17.0828 27.4442 16.962 27.4934C16.8449 27.5425 16.7203 27.5652 16.5882 27.5652H2.92643C2.79805 27.5652 2.67344 27.5425 2.5526 27.4934C2.43177 27.4442 2.32604 27.3762 2.23542 27.2855C2.14479 27.1948 2.07305 27.089 2.02396 26.9719C1.97487 26.8509 1.95221 26.73 1.95221 26.6015V7.26818Z" fill="#3F72AF"/>
<path d="M5.675 16.1196V20.5396C5.675 20.7596 5.68167 20.9629 5.695 21.1496C5.715 21.3296 5.755 21.4829 5.815 21.6096C5.88167 21.7363 5.97833 21.8363 6.105 21.9096C6.23167 21.9763 6.405 22.0096 6.625 22.0096C6.845 22.0096 7.01833 21.9763 7.145 21.9096C7.27167 21.8363 7.365 21.7363 7.425 21.6096C7.49167 21.4829 7.53167 21.3296 7.545 21.1496C7.565 20.9629 7.575 20.7596 7.575 20.5396V16.1196H9.075V20.3396C9.075 20.8196 9.04167 21.2396 8.975 21.5996C8.915 21.9596 8.795 22.2596 8.615 22.4996C8.435 22.7396 8.185 22.9196 7.865 23.0396C7.545 23.1596 7.13167 23.2196 6.625 23.2196C6.11833 23.2196 5.705 23.1596 5.385 23.0396C5.065 22.9196 4.815 22.7396 4.635 22.4996C4.455 22.2596 4.33167 21.9596 4.265 21.5996C4.205 21.2396 4.175 20.8196 4.175 20.3396V16.1196H5.675ZM11.8611 23.0996H10.3811V16.1196H13.0811C13.4211 16.1196 13.7244 16.1729 13.9911 16.2796C14.2578 16.3796 14.4811 16.5263 14.6611 16.7196C14.8478 16.9129 14.9878 17.1463 15.0811 17.4196C15.1744 17.6929 15.2211 17.9996 15.2211 18.3396C15.2211 18.8329 15.1144 19.2563 14.9011 19.6096C14.6878 19.9629 14.3844 20.1963 13.9911 20.3096L15.3611 23.0996H13.7211L12.5511 20.5096H11.8611V23.0996ZM12.7211 19.3496C13.0744 19.3496 13.3178 19.2829 13.4511 19.1496C13.5911 19.0163 13.6611 18.7963 13.6611 18.4896V18.1896C13.6611 17.8829 13.5911 17.6629 13.4511 17.5296C13.3178 17.3963 13.0744 17.3296 12.7211 17.3296H11.8611V19.3496H12.7211ZM4.545 37.0996V30.1196H6.055V35.8696H9.055V37.0996H4.545Z" fill="#3F72AF"/>
</svg>
