<svg width="106" height="28" viewBox="0 0 106 28" fill="none" xmlns="http://www.w3.org/2000/svg">
<mask id="mask0_2_732" style="mask-type:luminance" maskUnits="userSpaceOnUse" x="0" y="6" width="26" height="18">
<path d="M0 6.47058H25.1852V23.4706H0V6.47058Z" fill="white"/>
</mask>
<g mask="url(#mask0_2_732)">
<path d="M23.3356 13.1342H6.33891C6.33891 13.1342 9.91993 9.61218 10.015 9.49084C10.261 9.1793 10.4086 8.78579 10.4086 8.36275C10.4086 7.89053 10.2282 7.46422 9.93633 7.13629L9.78548 6.98872C9.45427 6.69686 9.02468 6.51978 8.54918 6.51978C8.06056 6.51978 7.61785 6.7067 7.28336 7.01167C7.28336 7.01167 0.426297 13.7966 0.393505 13.8425C0.150835 14.154 0.00326538 14.541 0.00326538 14.9673C0.00326538 15.3903 0.150835 15.7773 0.390225 16.0888C0.488604 16.2134 7.36862 23.0016 7.36862 23.0016C7.68999 23.2607 8.09663 23.4116 8.53934 23.4116C9.56576 23.4116 10.3987 22.5884 10.3987 21.5719C10.3987 21.1259 10.238 20.716 9.9724 20.3979L6.33891 16.7972H23.3356C24.3555 16.7972 25.1852 15.9773 25.1852 14.9673C25.1852 13.954 24.3555 13.1342 23.3356 13.1342Z" fill="#8248AE"/>
</g>
<mask id="mask1_2_732" style="mask-type:luminance" maskUnits="userSpaceOnUse" x="41" y="6" width="26" height="18">
<path d="M67 6.47058H41.8148V23.4706H67V6.47058Z" fill="white"/>
</mask>
<g mask="url(#mask1_2_732)">
<path d="M43.6644 13.1342H60.6611C60.6611 13.1342 57.0801 9.61218 56.985 9.49084C56.739 9.1793 56.5914 8.78579 56.5914 8.36275C56.5914 7.89053 56.7718 7.46422 57.0637 7.13629L57.2145 6.98872C57.5457 6.69686 57.9753 6.51978 58.4508 6.51978C58.9394 6.51978 59.3821 6.7067 59.7166 7.01167C59.7166 7.01167 66.5737 13.7966 66.6065 13.8425C66.8492 14.154 66.9967 14.541 66.9967 14.9673C66.9967 15.3903 66.8492 15.7773 66.6098 16.0888C66.5114 16.2134 59.6314 23.0016 59.6314 23.0016C59.31 23.2607 58.9034 23.4116 58.4607 23.4116C57.4342 23.4116 56.6013 22.5884 56.6013 21.5719C56.6013 21.1259 56.762 20.716 57.0276 20.3979L60.6611 16.7972H43.6644C42.6445 16.7972 41.8148 15.9773 41.8148 14.9673C41.8148 13.954 42.6445 13.1342 43.6644 13.1342Z" fill="#8248AE"/>
</g>
<mask id="mask2_2_732" style="mask-type:luminance" maskUnits="userSpaceOnUse" x="83" y="0" width="23" height="28">
<path d="M83 0.470581H106V27.5294H83V0.470581Z" fill="white"/>
</mask>
<g mask="url(#mask2_2_732)">
<path d="M105.933 17.7382C105.933 17.7417 105.933 17.7452 105.933 17.7523C105.933 17.3013 105.764 16.8926 105.486 16.5826L105.341 16.4381C105.031 16.1598 104.619 15.9906 104.168 15.9906C103.703 15.9906 103.284 16.1703 102.966 16.4628L102.875 16.5544C102.734 16.7094 102.618 16.8891 102.533 17.0864C102.449 17.2907 102.403 17.5162 102.403 17.7523C102.403 17.7629 102.403 17.777 102.403 17.7875C101.578 21.3531 98.3756 24.0167 94.5599 24.0167C90.1206 24.0167 86.5092 20.4124 86.5092 15.9801C86.5092 12.3229 88.9755 9.23651 93.3197 8.26409V8.61994H93.4466V12.9747L102.17 6.86534L93.4466 0.470581V4.67034C86.9848 5.74141 82.9965 10.4027 82.9965 15.9801C82.9965 22.3467 88.1828 27.5259 94.5599 27.5259C100.338 27.5259 105.137 23.2733 105.989 17.7382C105.972 17.7382 105.951 17.7382 105.933 17.7382Z" fill="#8248AE"/>
</g>
</svg>
