<svg width="30" height="30" viewBox="0 0 30 30" fill="none" xmlns="http://www.w3.org/2000/svg">
<path d="M15 0C14.0156 0 13.0391 0.0976565 12.0742 0.289062C11.1094 0.480469 10.168 0.765625 9.25781 1.14062C8.35156 1.51953 7.48437 1.98047 6.66797 2.52734C5.84766 3.07422 5.08984 3.69531 4.39453 4.39453C3.69531 5.08984 3.07422 5.84766 2.52734 6.66797C1.98047 7.48437 1.51953 8.35156 1.14062 9.25781C0.765625 10.168 0.480469 11.1094 0.289062 12.0742C0.0976565 13.0391 0 14.0156 0 15C0 15.9844 0.0976565 16.9609 0.289062 17.9258C0.480469 18.8906 0.765625 19.832 1.14062 20.7422C1.51953 21.6484 1.98047 22.5156 2.52734 23.332C3.07422 24.1523 3.69531 24.9102 4.39453 25.6055C5.08984 26.3047 5.84766 26.9258 6.66797 27.4727C7.48437 28.0195 8.35156 28.4805 9.25781 28.8594C10.168 29.2344 11.1094 29.5195 12.0742 29.7109C13.0391 29.9023 14.0156 30 15 30C15.9844 30 16.9609 29.9023 17.9258 29.7109C18.8906 29.5195 19.832 29.2344 20.7422 28.8594C21.6484 28.4805 22.5156 28.0195 23.332 27.4727C24.1523 26.9258 24.9102 26.3047 25.6055 25.6055C26.3047 24.9102 26.9258 24.1523 27.4727 23.332C28.0195 22.5156 28.4805 21.6484 28.8594 20.7422C29.2344 19.832 29.5195 18.8906 29.7109 17.9258C29.9023 16.9609 30 15.9844 30 15C30 14.0156 29.9023 13.0391 29.7109 12.0742C29.5195 11.1094 29.2344 10.1719 28.8594 9.26172C28.4805 8.35156 28.0195 7.48437 27.4727 6.66797C26.9258 5.84766 26.3008 5.08984 25.6055 4.39453C24.9102 3.69922 24.1523 3.07422 23.332 2.52734C22.5156 1.98047 21.6484 1.51953 20.7383 1.14062C19.8281 0.765625 18.8906 0.480469 17.9258 0.289062C16.9609 0.0976565 15.9844 0 15 0ZM8.08984 7.59766H21.9102C22.2031 7.59766 22.4883 7.64844 22.7656 7.75C23.043 7.85547 23.293 8 23.5156 8.19531C23.7422 8.38672 23.9219 8.60937 24.0664 8.87109C24.2109 9.12891 24.3008 9.40234 24.3477 9.69531C24.1484 9.80078 16.5547 14.1797 16.0547 14.4648C15.7266 14.6523 15.375 14.7422 15 14.7422C14.625 14.7422 14.2734 14.6523 13.9453 14.4648C13.4531 14.1836 5.83984 9.84766 5.65234 9.73047C5.69141 9.4375 5.78125 9.15625 5.92188 8.89453C6.06641 8.63281 6.24609 8.40234 6.47266 8.20703C6.69531 8.01172 6.94531 7.85938 7.22656 7.75391C7.50391 7.65234 7.79297 7.59766 8.08984 7.59766ZM24.375 19.9375C24.375 20.2617 24.3125 20.5781 24.1875 20.8789C24.0625 21.1797 23.8828 21.4492 23.6523 21.6797C23.4219 21.9102 23.1563 22.0859 22.8516 22.2148C22.5508 22.3398 22.2344 22.4023 21.9102 22.4023H8.08984C7.76562 22.4023 7.44922 22.3398 7.14844 22.2148C6.84375 22.0859 6.57813 21.9102 6.34766 21.6797C6.11719 21.4492 5.9375 21.1797 5.8125 20.8789C5.6875 20.5781 5.625 20.2617 5.625 19.9375V10.8516L13.4609 15.3242C13.9414 15.5937 14.4531 15.7305 15.0039 15.7305C15.5508 15.7305 16.0664 15.5937 16.543 15.3242L24.375 10.8125V19.9375Z" fill="#3F72AF"/>
</svg>
