<svg width="40" height="27" viewBox="0 0 40 27" fill="none" xmlns="http://www.w3.org/2000/svg">
<path d="M39.0417 0H0.958333C0.697916 0 0.46875 0.09375 0.28125 0.28125C0.09375 0.46875 0 0.692709 0 0.958333V26.0208C0 26.2813 0.09375 26.5104 0.28125 26.6927C0.46875 26.8802 0.697916 26.974 0.958333 26.974H39.0417C39.3073 26.974 39.5365 26.8802 39.7188 26.6927C39.9063 26.5104 40 26.2813 40 26.0208V0.958333C40 0.692709 39.9063 0.46875 39.724 0.28125C39.5365 0.09375 39.3073 0 39.0417 0ZM38.2448 23.6198L27.8542 13.2969L38.2448 2.96875V23.6198ZM1.76042 2.98438L11.6667 12.8229L1.76042 22.6615V2.98438ZM3.01563 1.75521H36.974L20.9844 17.6406C20.8542 17.7708 20.7031 17.8698 20.5313 17.9427C20.3594 18.0104 20.1823 18.0469 19.9948 18.0469C19.8125 18.0469 19.6354 18.0104 19.4635 17.9427C19.2917 17.8698 19.1406 17.7708 19.0104 17.6406L3.01563 1.75521ZM1.76042 25.1406L12.9115 14.0625L17.7708 18.8854C18.0677 19.1823 18.4062 19.4062 18.7917 19.5625C19.1771 19.724 19.5781 19.8021 19.9948 19.8021C20.4115 19.8021 20.8125 19.724 21.1979 19.5625C21.5833 19.4062 21.9271 19.1823 22.224 18.8854L26.6042 14.5365L37.3646 25.2188H1.76042V25.1406Z" fill="#8248AE"/>
</svg>
