<svg width="26" height="17" viewBox="0 0 26 17" fill="none" xmlns="http://www.w3.org/2000/svg">
<mask id="mask0_125_2104" style="mask-type:luminance" maskUnits="userSpaceOnUse" x="0" y="0" width="26" height="17">
<path d="M26 0H0.814816V17H26V0Z" fill="white"/>
</mask>
<g mask="url(#mask0_125_2104)">
<path d="M2.6647 6.66322H19.6614C19.6614 6.66322 16.0804 3.14123 15.9853 3.01989C15.7394 2.70836 15.5918 2.31484 15.5918 1.89181C15.5918 1.41958 15.7721 0.993272 16.064 0.66534L16.2149 0.517771C16.5461 0.225911 16.9757 0.0488281 17.4512 0.0488281C17.9398 0.0488281 18.3825 0.235749 18.717 0.540726C18.717 0.540726 25.574 7.32564 25.6068 7.37155C25.8495 7.68309 25.9971 8.07005 25.9971 8.49636C25.9971 8.91939 25.8495 9.30635 25.6101 9.61789C25.5117 9.7425 18.6317 16.5307 18.6317 16.5307C18.3103 16.7898 17.9037 16.9406 17.461 16.9406C16.4346 16.9406 15.6016 16.1175 15.6016 15.1009C15.6016 14.6549 15.7623 14.245 16.0279 13.9269L19.6614 10.3262H2.6647C1.64483 10.3262 0.815165 9.50639 0.815165 8.49636C0.815165 7.48305 1.64483 6.66322 2.6647 6.66322Z" fill="#112D4E"/>
</g>
</svg>
