<svg width="26" height="25" viewBox="0 0 26 25" fill="none" xmlns="http://www.w3.org/2000/svg">
<path fill-rule="evenodd" clip-rule="evenodd" d="M1.58542 1.35685C0.114258 2.82801 0.114258 5.19581 0.114258 9.9314V14.9543C0.114258 19.6898 0.114258 22.0576 1.58542 23.5288C3.05659 25 5.42438 25 10.16 25H15.1828C19.9184 25 22.2863 25 23.7574 23.5288C25.2286 22.0577 25.2286 19.6898 25.2286 14.9543V9.9314C25.2286 6.366 25.2286 4.14278 24.6007 2.63389V18.7214C23.3947 18.7214 22.2381 18.2424 21.3852 17.3895L20.4414 16.4457C19.5357 15.5399 19.0827 15.087 18.5693 14.8961C18.0048 14.6864 17.3837 14.6864 16.8193 14.8961C16.3058 15.087 15.8529 15.5399 14.9471 16.4457L14.8051 16.5877C14.07 17.3228 13.7026 17.6902 13.3121 17.7588C13.0086 17.812 12.6962 17.7519 12.4341 17.5898C12.0969 17.3811 11.8922 16.9034 11.4828 15.9479L11.4157 15.7915C10.4744 13.595 10.0037 12.4967 9.18262 12.0851C8.76926 11.8779 8.30671 11.7889 7.84595 11.8277C6.93073 11.9049 6.08586 12.7499 4.39611 14.4396L1.99783 16.8378V1C1.85267 1.10812 1.71553 1.22673 1.58542 1.35685Z" fill="#3F72AF"/>
<path d="M1.37012 9.93063C1.37012 7.52733 1.37278 5.85118 1.54282 4.58651C1.70799 3.35796 2.01011 2.70738 2.47349 2.244C2.93687 1.78061 3.58745 1.4785 4.816 1.31332C6.08067 1.14329 7.75682 1.14062 10.1601 1.14062H15.183C17.5863 1.14062 19.2624 1.14329 20.5271 1.31332C21.7557 1.4785 22.4062 1.78061 22.8696 2.244C23.333 2.70738 23.6351 3.35796 23.8003 4.58651C23.9704 5.85118 23.973 7.52733 23.973 9.93063V14.9535C23.973 17.3568 23.9704 19.0329 23.8003 20.2976C23.6351 21.5262 23.333 22.1767 22.8696 22.6401C22.4062 23.1035 21.7557 23.4056 20.5271 23.5708C19.2624 23.7409 17.5863 23.7435 15.183 23.7435H10.1601C7.75682 23.7435 6.08067 23.7409 4.816 23.5708C3.58745 23.4056 2.93687 23.1035 2.47349 22.6401C2.01011 22.1767 1.70799 21.5262 1.54282 20.2976C1.37278 19.0329 1.37012 17.3568 1.37012 14.9535V9.93063Z" stroke="#3F72AF" stroke-width="2"/>
<path d="M16.4382 11.1869C17.8252 11.1869 18.9496 10.0625 18.9496 8.67549C18.9496 7.28847 17.8252 6.16406 16.4382 6.16406C15.0512 6.16406 13.9268 7.28847 13.9268 8.67549C13.9268 10.0625 15.0512 11.1869 16.4382 11.1869Z" fill="#3F72AF"/>
</svg>
