<svg width="21" height="20" viewBox="0 0 21 20" fill="none" xmlns="http://www.w3.org/2000/svg">
<path fill-rule="evenodd" clip-rule="evenodd" d="M10.4961 0C9.83993 0 9.18897 0.0650959 8.54583 0.192683C7.90008 0.320271 7.27516 0.51035 6.66847 0.762922C6.06178 1.01289 5.48633 1.32274 4.93953 1.68728C4.39533 2.05182 3.89018 2.46582 3.4267 2.93191C2.96062 3.39539 2.54661 3.90053 2.18207 4.44734C1.81754 4.99414 1.51029 5.56959 1.26032 6.17628C1.00775 6.78297 0.817667 7.40789 0.690079 8.05104C0.562492 8.69678 0.5 9.34514 0.5 10.0039C0.5 10.6601 0.562492 11.311 0.692683 11.9542C0.820271 12.5973 1.01035 13.2222 1.26032 13.8289C1.51289 14.4356 1.82014 15.0111 2.18728 15.5579C2.55182 16.1047 2.96583 16.6098 3.42931 17.0733C3.89539 17.5368 4.40053 17.9508 4.94473 18.3153C5.49154 18.6799 6.06698 18.9897 6.67368 19.2397C7.28037 19.4897 7.90789 19.6797 8.55104 19.8073C9.19418 19.9349 9.84514 20 10.5013 20C11.1575 20 11.8084 19.9349 12.4516 19.8073C13.0973 19.6797 13.7222 19.4897 14.3289 19.2371C14.9356 18.9871 15.5111 18.6773 16.0579 18.3127C16.6021 17.9482 17.1072 17.5342 17.5707 17.0681C18.0368 16.6046 18.4508 16.0995 18.8153 15.5527C19.1799 15.0085 19.4871 14.4304 19.7397 13.8237C19.9897 13.217 20.1797 12.5921 20.3073 11.949C20.4349 11.3032 20.5 10.6549 20.5 9.9987C20.4974 9.34253 20.4323 8.69158 20.3021 8.04843C20.1745 7.40529 19.9844 6.78037 19.7319 6.17368C19.4793 5.56698 19.172 4.99154 18.8075 4.44734C18.4404 3.90053 18.0264 3.39539 17.5629 2.93191C17.0994 2.46843 16.5943 2.05442 16.0475 1.68988C15.5033 1.32535 14.9252 1.01549 14.3211 0.765525C13.7144 0.512954 13.0895 0.322874 12.4464 0.195287C11.8006 0.0650954 11.1523 0 10.4961 0ZM13.2562 18.4351C12.8239 18.5236 12.6625 18.2554 12.6625 18.0263C12.6625 17.7321 12.6755 16.7999 12.6755 15.6412C12.6755 14.834 12.4021 14.308 12.0896 14.0398C14.0165 13.8211 16.0449 13.0894 16.0449 9.75915C16.0579 8.86343 15.761 8.08749 15.1517 7.43132C15.2403 7.2126 15.5475 6.3247 15.0684 5.12954C15.0684 5.12954 14.3419 4.89259 12.6833 6.01484C11.2382 5.62687 9.79567 5.62687 8.35054 6.01484C6.6919 4.90561 5.96543 5.12954 5.96543 5.12954C5.49154 6.32209 5.79358 7.20739 5.88211 7.43132C5.27802 8.08749 4.98119 8.86343 4.99681 9.75915C4.99681 13.0764 7.01217 13.8211 8.9364 14.0398C8.68904 14.256 8.4599 14.6309 8.38179 15.2011C7.88446 15.4225 6.63983 15.7922 5.86389 14.4851C5.69724 14.2247 5.21293 13.5868 4.53073 13.592C3.80165 13.605 4.23649 14.0086 4.53593 14.1674C4.90568 14.3783 5.3275 15.1439 5.42905 15.3938C5.6009 15.8833 6.16333 16.8155 8.33752 16.4145C8.33752 17.141 8.35054 17.8232 8.35054 18.0237C8.35054 18.2554 8.19171 18.508 7.75687 18.4325C7.4366 18.3257 7.12153 18.1982 6.81428 18.0549C6.50703 17.9091 6.21019 17.7477 5.92117 17.568C5.63475 17.3884 5.35874 17.1905 5.09315 16.9796C4.82756 16.7687 4.57759 16.5395 4.33804 16.3C4.10109 16.0578 3.87716 15.8026 3.66886 15.5344C3.46316 15.2662 3.27047 14.9876 3.09602 14.696C2.91896 14.407 2.76273 14.1075 2.62212 13.7977C2.48151 13.4878 2.35913 13.1728 2.25758 12.8499C2.15343 12.527 2.07011 12.1963 2.00762 11.8656C1.94252 11.5324 1.89826 11.1965 1.87222 10.858C1.84878 10.5195 1.84358 10.181 1.8592 9.84247C1.87222 9.50137 1.90867 9.16547 1.96335 8.82958C2.01803 8.49629 2.09094 8.1656 2.18468 7.84013C2.27842 7.51204 2.39038 7.19438 2.52057 6.88192C2.65337 6.56685 2.80178 6.26481 2.96843 5.96797C3.13507 5.67374 3.31734 5.38732 3.51784 5.11392C3.71833 4.84052 3.93445 4.58013 4.16619 4.33017C4.39533 4.0828 4.64009 3.84846 4.90047 3.62713C5.15825 3.40841 5.42905 3.20531 5.71026 3.01784C5.99408 2.82776 6.28571 2.65851 6.58775 2.50488C6.88979 2.35126 7.20225 2.21586 7.51992 2.09869C7.83759 1.98151 8.16306 1.88257 8.49115 1.80445C8.82183 1.72634 9.15512 1.66645 9.49362 1.62739C9.82951 1.58573 10.168 1.5675 10.5065 1.5675C10.845 1.5675 11.1835 1.58573 11.522 1.62739C11.8579 1.66645 12.1912 1.72634 12.5219 1.80445C12.8526 1.88257 13.1754 1.98151 13.4931 2.09869C13.8134 2.21586 14.1232 2.35126 14.4253 2.50488C14.7273 2.65851 15.0215 2.82776 15.3028 3.01784C15.5866 3.20531 15.8548 3.40841 16.1152 3.62713C16.3729 3.84846 16.6177 4.0828 16.8494 4.33017C17.0786 4.58013 17.2947 4.84052 17.4952 5.11392C17.6957 5.38732 17.8779 5.67374 18.0446 5.96797C18.2138 6.26481 18.3623 6.56685 18.4924 6.88192C18.6226 7.19438 18.7346 7.51204 18.8283 7.84013C18.9221 8.1656 18.9976 8.49629 19.0523 8.82958C19.107 9.16547 19.1408 9.50137 19.1564 9.84247C19.1694 10.181 19.1668 10.5195 19.1408 10.858C19.1148 11.1965 19.0705 11.5324 19.008 11.8656C18.9429 12.1963 18.8596 12.527 18.7554 12.8499C18.6539 13.1728 18.5315 13.4878 18.3909 13.7977C18.2529 14.1075 18.0941 14.407 17.9196 14.696C17.7425 14.9876 17.5525 15.2662 17.3442 15.5344C17.1359 15.8026 16.9119 16.0578 16.675 16.3C16.4354 16.5395 16.1855 16.7687 15.9199 16.9796C15.6569 17.1905 15.3783 17.3884 15.0919 17.568C14.8028 17.7477 14.506 17.9091 14.1987 18.0549C13.8941 18.1982 13.579 18.3257 13.2562 18.4325V18.4351Z" fill="#3F72AF"/>
</svg>
