<svg width="21" height="24" viewBox="0 0 21 24" fill="none" xmlns="http://www.w3.org/2000/svg">
<g clip-path="url(#clip0_139_3529)">
<path fill-rule="evenodd" clip-rule="evenodd" d="M0.506345 8.64865C0.114258 9.49111 0.114258 10.4495 0.114258 12.3664V18.3527C0.114258 21.0149 0.114258 22.3459 0.951095 23.1729C1.71044 23.9233 2.88976 23.9927 5.11426 23.9992V16.9411C5.11426 15.3817 6.39344 14.1176 7.9714 14.1176H12.2571C13.8351 14.1176 15.1143 15.3817 15.1143 16.9411V23.9992C17.3388 23.9927 18.5181 23.9233 19.2774 23.1729C20.1143 22.3459 20.1143 21.0149 20.1143 18.3527V12.3664C20.1143 10.4495 20.1143 9.49111 19.7221 8.64865C19.3301 7.8062 18.5937 7.18248 17.121 5.93502L15.6924 4.72494C13.0306 2.47016 11.6996 1.34277 10.1143 1.34277C8.52887 1.34277 7.19793 2.47016 4.53604 4.72494L3.10747 5.93502C1.63479 7.18248 0.898434 7.8062 0.506345 8.64865ZM12.2571 23.9998V16.9411H7.9714V23.9998H12.2571Z" fill="#3F72AF"/>
</g>
<defs>
<clipPath id="clip0_139_3529">
<rect width="20" height="24" fill="white" transform="translate(0.114258)"/>
</clipPath>
</defs>
</svg>
