<svg width="21" height="20" viewBox="0 0 21 20" fill="none" xmlns="http://www.w3.org/2000/svg">
<path d="M18.8454 0H2.16231C1.24112 0 0.5 0.75 0.5 1.66146V18.3385C0.5 19.2604 1.25156 20 2.16231 20H18.8376C19.7588 20 20.4999 19.25 20.4999 18.3385V1.66146C20.5103 0.75 19.7692 0 18.8454 0ZM6.42377 16.5H3.4671V7.63542H6.42377V16.5ZM4.94152 6.5651C4.00729 6.5651 3.25573 5.8125 3.25573 4.88281C3.25573 3.95312 4.00729 3.20313 4.94152 3.20313C5.87314 3.20313 6.62471 3.95312 6.62471 4.88281C6.62471 5.8125 5.87314 6.5651 4.94152 6.5651ZM17.5537 16.5H14.5866L14.5161 11.237C14.5161 11.237 14.5866 9.83594 13.0521 9.84635C11.5177 9.85677 11.3063 11.237 11.3063 11.237V16.5H8.31833V7.63542H11.1863V8.85417C11.1863 8.85417 11.3063 8.45573 11.9691 7.98438C12.6294 7.51563 13.7228 7.41406 14.1951 7.4349C14.6648 7.45313 15.3068 7.375 16.3793 8.11458C17.5328 8.90625 17.5641 10.9766 17.5641 10.9766L17.5537 16.5Z" fill="#3F72AF"/>
</svg>
