<svg width="17" height="21" viewBox="0 0 17 21" fill="none" xmlns="http://www.w3.org/2000/svg">
<path d="M8.4984 2.31543C10.2979 2.31543 11.7533 3.72363 11.7533 5.45996V8.60905H5.24352V5.45996C5.24352 3.72363 6.69888 2.31543 8.4984 2.31543ZM14.1182 8.63184V5.43717C14.1182 2.43848 11.6009 0.00488281 8.4984 0.00488281C5.39594 0.00488281 2.87857 2.43848 2.87857 5.43717V8.63184C1.78705 8.77767 0.946289 9.67546 0.946289 10.7692V17.9606C0.946289 19.1501 1.94931 20.1208 3.18341 20.1208H13.8134C15.0475 20.1208 16.0505 19.1501 16.0505 17.9606V10.7692C16.0505 9.67546 15.2098 8.77767 14.1182 8.63184Z" fill="#231942"/>
</svg>
