<svg width="26" height="26" viewBox="0 0 26 26" fill="none" xmlns="http://www.w3.org/2000/svg">
<path d="M2.22852 2H4.52352C5.32452 2 5.72502 2 6.0433 2.17552C6.17455 2.24792 6.29345 2.34074 6.39551 2.45052C6.64299 2.71674 6.74013 3.10527 6.93439 3.88235L7.19077 4.90784C7.33346 5.47862 7.40481 5.764 7.51494 6.00343C7.89723 6.83457 8.65854 7.42898 9.55761 7.5983C9.81658 7.64706 10.1108 7.64706 10.6991 7.64706" stroke="#3F72AF" stroke-width="3" stroke-linecap="round"/>
<path d="M21.9923 20.3525H7.24061C7.03421 20.3525 6.93103 20.3525 6.85273 20.3437C6.02319 20.2508 5.45493 19.4624 5.62914 18.6461C5.64557 18.569 5.67821 18.4712 5.74348 18.2754C5.81594 18.0579 5.85217 17.9492 5.89221 17.8534C6.30201 16.8714 7.22912 16.203 8.29036 16.1248C8.39401 16.1172 8.50859 16.1172 8.73773 16.1172H16.3452" stroke="#3F72AF" stroke-width="3" stroke-linecap="round" stroke-linejoin="round"/>
<path d="M17.0898 16.118H12.0729C10.3563 16.118 9.49802 16.118 8.83597 15.7292C8.55639 15.5651 8.30716 15.354 8.09923 15.1051C7.60689 14.516 7.46579 13.6693 7.18359 11.9762C6.89765 10.2605 6.75468 9.40271 7.09408 8.76733C7.23577 8.50209 7.43233 8.27006 7.67066 8.0867C8.24159 7.64746 9.11125 7.64746 10.8506 7.64746H20.2465C22.2941 7.64746 23.3179 7.64746 23.7317 8.31702C24.1455 8.98658 23.6876 9.90229 22.772 11.7337L22.1406 12.9965C21.3812 14.5153 21.0015 15.2747 20.3192 15.6964C19.6369 16.118 18.7878 16.118 17.0898 16.118Z" stroke="#3F72AF" stroke-width="3" stroke-linecap="round"/>
<path d="M20.5817 26.0003C21.3614 26.0003 21.9935 25.3682 21.9935 24.5885C21.9935 23.8088 21.3614 23.1768 20.5817 23.1768C19.802 23.1768 19.1699 23.8088 19.1699 24.5885C19.1699 25.3682 19.802 26.0003 20.5817 26.0003Z" fill="#3F72AF"/>
<path d="M9.28676 26.0003C10.0665 26.0003 10.6985 25.3682 10.6985 24.5885C10.6985 23.8088 10.0665 23.1768 9.28676 23.1768C8.50707 23.1768 7.875 23.8088 7.875 24.5885C7.875 25.3682 8.50707 26.0003 9.28676 26.0003Z" fill="#3F72AF"/>
</svg>
