<svg width="23" height="28" viewBox="0 0 23 28" fill="none" xmlns="http://www.w3.org/2000/svg">
<mask id="mask0_125_2109" style="mask-type:luminance" maskUnits="userSpaceOnUse" x="0" y="0" width="23" height="28">
<path d="M0 0H23V27.0588H0V0Z" fill="white"/>
</mask>
<g mask="url(#mask0_125_2109)">
<path d="M22.9327 17.2676C22.9327 17.2711 22.9327 17.2747 22.9327 17.2817C22.9327 16.8307 22.7636 16.422 22.4852 16.112L22.3408 15.9675C22.0307 15.6892 21.6185 15.5201 21.1675 15.5201C20.7024 15.5201 20.2832 15.6998 19.9661 15.9922L19.8745 16.0838C19.7335 16.2388 19.6173 16.4185 19.5327 16.6158C19.4481 16.8202 19.4023 17.0457 19.4023 17.2817C19.4023 17.2923 19.4023 17.3064 19.4023 17.3169C18.5779 20.8825 15.3752 23.5461 11.5595 23.5461C7.12017 23.5461 3.50881 19.9418 3.50881 15.5095C3.50881 11.8523 5.97511 8.76593 10.3193 7.79351V8.14936H10.4462V12.5041L19.1698 6.39476L10.4462 0V4.19976C3.98445 5.27083 -0.00390625 9.93214 -0.00390625 15.5095C-0.00390625 21.8761 5.18237 27.0553 11.5595 27.0553C17.3377 27.0553 22.1364 22.8027 22.989 17.2676C22.9714 17.2676 22.9503 17.2676 22.9327 17.2676Z" fill="#112D4E"/>
</g>
</svg>
