<svg width="32" height="40" viewBox="0 0 32 40" fill="none" xmlns="http://www.w3.org/2000/svg">
<path d="M28.1354 0H3.72917C1.67187 0 0 1.67187 0 3.72917V36.2708C0 38.3281 1.67187 40 3.72917 40H28.1354C30.1927 40 31.8646 38.3281 31.8646 36.2708V3.72917C31.8646 1.67187 30.1927 0 28.1354 0ZM16.9115 5.49479C17.4323 5.29167 18.026 5.54167 18.2344 6.0625L20 10.4844L21.7656 6.0625C21.9792 5.54167 22.5677 5.29167 23.0885 5.49479C23.6094 5.70313 23.8646 6.29688 23.6563 6.81771L20.9427 13.599C20.7917 13.9844 20.4167 14.2396 20 14.2396C19.5833 14.2396 19.2083 13.9844 19.0573 13.599L16.3438 6.81771C16.1354 6.29688 16.3906 5.70313 16.9115 5.49479ZM11.6719 5.42188C12.6719 5.42188 13.6198 5.84375 14.349 6.60417C14.7344 7.01042 14.7187 7.65625 14.3125 8.04167C13.9063 8.43229 13.2656 8.41667 12.875 8.01042C12.6354 7.76042 12.2344 7.45833 11.6719 7.45833C10.6302 7.45833 9.78125 8.52083 9.78125 9.82813C9.78125 11.1406 10.6302 12.2031 11.6719 12.2031C12.1094 12.2031 12.5365 12.0052 12.8802 11.651C13.2656 11.2448 13.9115 11.2292 14.3177 11.6146C14.724 12 14.7396 12.6458 14.349 13.0521C13.625 13.8177 12.6719 14.2396 11.6719 14.2396C9.51042 14.2396 7.75 12.2604 7.75 9.82813C7.75 7.40104 9.51042 5.42188 11.6719 5.42188ZM15.9323 34.5781H6.44271C5.88021 34.5781 5.42188 34.1198 5.42188 33.5573C5.42188 33 5.88021 32.5417 6.44271 32.5417H15.9323C16.4948 32.5417 16.9479 33 16.9479 33.5573C16.9479 34.1198 16.4948 34.5781 15.9323 34.5781ZM25.4219 27.7969H6.44271C5.88021 27.7969 5.42188 27.3385 5.42188 26.7813C5.42188 26.2188 5.88021 25.7604 6.44271 25.7604H25.4219C25.9844 25.7604 26.4427 26.2188 26.4427 26.7813C26.4427 27.3385 25.9844 27.7969 25.4219 27.7969ZM25.4219 21.0156H6.44271C5.88021 21.0156 5.42188 20.5625 5.42188 20C5.42188 19.4375 5.88021 18.9844 6.44271 18.9844H25.4219C25.9844 18.9844 26.4427 19.4375 26.4427 20C26.4427 20.5625 25.9844 21.0156 25.4219 21.0156Z" fill="#8248AE"/>
</svg>
