<svg width="512" height="512" viewBox="0 0 512 512" fill="none" xmlns="http://www.w3.org/2000/svg">
<path d="M300.191 84.9675C342.441 84.9675 376.61 118.03 376.61 158.795V232.73H223.772V158.795C223.772 118.03 257.94 84.9675 300.191 84.9675ZM432.135 233.266V158.261C432.135 87.8564 373.031 30.7197 300.191 30.7197C227.35 30.7197 168.246 87.8564 168.246 158.261V233.266C142.62 236.69 122.88 257.768 122.88 283.448V452.289C122.88 480.216 146.429 503.006 175.404 503.006H424.977C453.952 503.006 477.501 480.216 477.501 452.289V283.448C477.501 257.768 457.762 236.69 432.135 233.266Z" fill="#171619"/>
<path d="M259.231 64.488C301.481 64.488 335.65 97.5501 335.65 138.316V212.251H182.812V138.316C182.812 97.5501 216.98 64.488 259.231 64.488ZM391.175 212.786V137.781C391.175 67.3769 332.071 10.2402 259.231 10.2402C186.39 10.2402 127.286 67.3769 127.286 137.781V212.786C101.66 216.211 81.9199 237.289 81.9199 262.969V431.81C81.9199 459.736 105.469 482.526 134.444 482.526H384.017C412.992 482.526 436.541 459.736 436.541 431.81V262.969C436.541 237.289 416.802 216.211 391.175 212.786Z" fill="#3F72AF"/>
<path d="M363.993 384.348C363.993 397.788 361.699 410.055 357.112 421.148C352.526 432.242 346.286 441.789 338.393 449.788C330.5 457.682 321.219 463.815 310.553 468.188C299.993 472.562 288.632 474.748 276.472 474.748C264.419 474.748 253.06 472.509 242.393 468.029C231.833 463.549 222.553 457.308 214.553 449.308C206.659 441.308 200.419 431.815 195.832 420.828C191.246 409.735 188.953 397.575 188.953 384.348V232.028H232.793V312.028C235.14 309.041 237.966 306.375 241.272 304.028C244.686 301.682 248.312 299.762 252.152 298.268C256.099 296.775 260.153 295.655 264.312 294.908C268.473 294.055 272.526 293.628 276.472 293.628C288.632 293.628 299.993 295.922 310.553 300.508C321.219 304.988 330.5 311.282 338.393 319.388C346.286 327.495 352.526 337.095 357.112 348.188C361.699 359.175 363.993 371.228 363.993 384.348ZM319.992 384.348C319.992 377.735 318.819 371.602 316.473 365.948C314.232 360.188 311.139 355.228 307.192 351.068C303.246 346.908 298.606 343.655 293.273 341.309C288.046 338.962 282.446 337.788 276.472 337.788C270.499 337.788 264.846 339.121 259.513 341.788C254.286 344.348 249.699 347.815 245.752 352.189C241.806 356.455 238.712 361.415 236.473 367.068C234.232 372.615 233.113 378.375 233.113 384.348C233.113 390.961 234.232 397.095 236.473 402.749C238.712 408.402 241.806 413.308 245.752 417.469C249.699 421.628 254.286 424.935 259.513 427.388C264.846 429.735 270.499 430.909 276.472 430.909C282.446 430.909 288.046 429.735 293.273 427.388C298.606 424.935 303.246 421.628 307.192 417.469C311.139 413.308 314.232 408.402 316.473 402.749C318.819 397.095 319.992 390.961 319.992 384.348Z" fill="#F9F7F7"/>
</svg>
