<svg width="180" height="180" viewBox="0 0 180 180" fill="none" xmlns="http://www.w3.org/2000/svg">
<path d="M105.536 29.8713C120.39 29.8713 132.402 41.4948 132.402 55.8264V81.8192H78.6699V55.8264C78.6699 41.4948 90.6824 29.8713 105.536 29.8713ZM151.923 82.0074V55.6385C151.923 30.8869 131.144 10.7998 105.536 10.7998C79.9281 10.7998 59.1493 30.8869 59.1493 55.6385V82.0074C50.1399 83.2113 43.2002 90.6215 43.2002 99.6496V159.008C43.2002 168.826 51.4791 176.838 61.6657 176.838H149.406C159.593 176.838 167.872 168.826 167.872 159.008V99.6496C167.872 90.6215 160.932 83.2113 151.923 82.0074Z" fill="#171619"/>
<path d="M91.1356 22.6711C105.989 22.6711 118.002 34.2945 118.002 48.6263V74.619H64.2695V48.6263C64.2695 34.2945 76.282 22.6711 91.1356 22.6711ZM137.522 74.8073V48.4383C137.522 23.6867 116.743 3.59961 91.1356 3.59961C65.5277 3.59961 44.7489 23.6867 44.7489 48.4383V74.8073C35.7395 76.0111 28.7998 83.4213 28.7998 92.4494V151.808C28.7998 161.626 37.0787 169.638 47.2653 169.638H135.006C145.192 169.638 153.471 161.626 153.471 151.808V92.4494C153.471 83.4213 146.532 76.0111 137.522 74.8073Z" fill="#3F72AF"/>
<path d="M127.966 135.122C127.966 139.847 127.16 144.16 125.547 148.06C123.935 151.96 121.741 155.316 118.966 158.128C116.191 160.904 112.928 163.06 109.179 164.597C105.466 166.135 101.472 166.903 97.1972 166.903C92.9596 166.903 88.9662 166.116 85.216 164.541C81.5037 162.966 78.241 160.772 75.4287 157.96C72.6535 155.147 70.4596 151.81 68.8472 147.947C67.2348 144.047 66.4287 139.772 66.4287 135.122V81.5723H81.841V109.697C82.6662 108.647 83.6598 107.71 84.8222 106.885C86.0224 106.06 87.2972 105.385 88.6472 104.86C90.0346 104.335 91.4599 103.941 92.9222 103.678C94.3849 103.379 95.8098 103.228 97.1972 103.228C101.472 103.228 105.466 104.035 109.179 105.647C112.928 107.222 116.191 109.435 118.966 112.285C121.741 115.135 123.935 118.51 125.547 122.41C127.16 126.272 127.966 130.51 127.966 135.122ZM112.497 135.122C112.497 132.797 112.085 130.641 111.26 128.653C110.472 126.628 109.385 124.885 107.997 123.422C106.61 121.96 104.979 120.816 103.104 119.991C101.266 119.166 99.2974 118.753 97.1972 118.753C95.0973 118.753 93.1098 119.222 91.2349 120.16C89.3974 121.06 87.7846 122.279 86.3972 123.816C85.0098 125.316 83.9222 127.06 83.1349 129.047C82.3472 130.997 81.9537 133.022 81.9537 135.122C81.9537 137.447 82.3472 139.604 83.1349 141.591C83.9222 143.579 85.0098 145.303 86.3972 146.766C87.7846 148.228 89.3974 149.391 91.2349 150.253C93.1098 151.079 95.0973 151.491 97.1972 151.491C99.2974 151.491 101.266 151.079 103.104 150.253C104.979 149.391 106.61 148.228 107.997 146.766C109.385 145.303 110.472 143.579 111.26 141.591C112.085 139.604 112.497 137.447 112.497 135.122Z" fill="#F9F7F7"/>
</svg>
