<svg width="48" height="48" viewBox="0 0 48 48" fill="none" xmlns="http://www.w3.org/2000/svg">
<path d="M28.1424 7.96561C32.1034 7.96561 35.3067 11.0652 35.3067 14.887V21.8184H20.9781V14.887C20.9781 11.0652 24.1815 7.96561 28.1424 7.96561ZM40.5122 21.8686V14.8369C40.5122 8.23644 34.9712 2.87988 28.1424 2.87988C21.3136 2.87988 15.7726 8.23644 15.7726 14.8369V21.8686C13.3701 22.1896 11.5195 24.1657 11.5195 26.5732V42.402C11.5195 45.0201 13.7272 47.1567 16.4437 47.1567H39.8412C42.5576 47.1567 44.7653 45.0201 44.7653 42.402V26.5732C44.7653 24.1657 42.9147 22.1896 40.5122 21.8686Z" fill="#171619"/>
<path d="M24.3026 6.04569C28.2635 6.04569 31.4669 9.14526 31.4669 12.9671V19.8985H17.1383V12.9671C17.1383 9.14526 20.3416 6.04569 24.3026 6.04569ZM36.6724 19.9487V12.917C36.6724 6.31652 31.1313 0.959961 24.3026 0.959961C17.4738 0.959961 11.9328 6.31652 11.9328 12.917V19.9487C9.53028 20.2697 7.67969 22.2458 7.67969 24.6532V40.4821C7.67969 43.1002 9.8874 45.2368 12.6038 45.2368H36.0013C38.7177 45.2368 40.9254 43.1002 40.9254 40.4821V24.6532C40.9254 22.2458 39.0749 20.2697 36.6724 19.9487Z" fill="#3F72AF"/>
<path d="M34.1248 36.0329C34.1248 37.2929 33.9098 38.4429 33.4798 39.4829C33.0498 40.5229 32.4648 41.418 31.7248 42.1679C30.9848 42.908 30.1148 43.4829 29.1148 43.8929C28.1248 44.3029 27.0598 44.5079 25.9198 44.5079C24.7898 44.5079 23.7248 44.298 22.7248 43.878C21.7348 43.458 20.8648 42.8729 20.1148 42.1229C19.3748 41.3729 18.7898 40.4829 18.3598 39.4529C17.9298 38.413 17.7148 37.273 17.7148 36.0329V21.7529H21.8248V29.2529C22.0448 28.9729 22.3098 28.7229 22.6198 28.5029C22.9398 28.2829 23.2798 28.1029 23.6398 27.9629C24.0098 27.8229 24.3898 27.7179 24.7798 27.6479C25.1698 27.5679 25.5498 27.5279 25.9198 27.5279C27.0598 27.5279 28.1248 27.7429 29.1148 28.1729C30.1148 28.5929 30.9848 29.1829 31.7248 29.9429C32.4648 30.7029 33.0498 31.6029 33.4798 32.6429C33.9098 33.673 34.1248 34.8029 34.1248 36.0329ZM29.9998 36.0329C29.9998 35.413 29.8898 34.8379 29.6698 34.3079C29.4598 33.7679 29.1698 33.3029 28.7998 32.9129C28.4298 32.5229 27.9948 32.2179 27.4948 31.998C27.0048 31.7779 26.4798 31.6679 25.9198 31.6679C25.3598 31.6679 24.8298 31.7929 24.3298 32.0429C23.8398 32.2829 23.4098 32.6079 23.0398 33.018C22.6698 33.4179 22.3798 33.8829 22.1698 34.4129C21.9598 34.933 21.8548 35.473 21.8548 36.0329C21.8548 36.6529 21.9598 37.2279 22.1698 37.758C22.3798 38.288 22.6698 38.7479 23.0398 39.138C23.4098 39.5279 23.8398 39.8379 24.3298 40.0679C24.8298 40.2879 25.3598 40.398 25.9198 40.398C26.4798 40.398 27.0048 40.2879 27.4948 40.0679C27.9948 39.8379 28.4298 39.5279 28.7998 39.138C29.1698 38.7479 29.4598 38.288 29.6698 37.758C29.8898 37.2279 29.9998 36.6529 29.9998 36.0329Z" fill="#F9F7F7"/>
</svg>
