<svg width="32" height="32" viewBox="0 0 32 32" fill="none" xmlns="http://www.w3.org/2000/svg">
<path d="M18.7616 5.31041C21.4022 5.31041 23.5378 7.37682 23.5378 9.92466V14.5456H13.9854V9.92466C13.9854 7.37682 16.121 5.31041 18.7616 5.31041ZM27.0081 14.5791V9.89125C27.0081 5.49096 23.3141 1.91992 18.7616 1.91992C14.2091 1.91992 10.5151 5.49096 10.5151 9.89125V14.5791C8.91342 14.7931 7.67969 16.1104 7.67969 17.7154V28.268C7.67969 30.0134 9.15149 31.4378 10.9624 31.4378H26.5608C28.3717 31.4378 29.8435 30.0134 29.8435 28.268V17.7154C29.8435 16.1104 28.6098 14.7931 27.0081 14.5791Z" fill="#171619"/>
<path d="M16.202 4.03013C18.8427 4.03013 20.9782 6.09651 20.9782 8.64438V13.2653H11.4258V8.64438C11.4258 6.09651 13.5614 4.03013 16.202 4.03013ZM24.4486 13.2988V8.61098C24.4486 4.21069 20.7545 0.639648 16.202 0.639648C11.6495 0.639648 7.95551 4.21069 7.95551 8.61098V13.2988C6.35385 13.5128 5.12012 14.8302 5.12012 16.4352V26.9877C5.12012 28.7332 6.59193 30.1575 8.40287 30.1575H24.0012C25.8122 30.1575 27.284 28.7332 27.284 26.9877V16.4352C27.284 14.8302 26.0502 13.5128 24.4486 13.2988Z" fill="#3F72AF"/>
<path d="M22.7495 24.022C22.7495 24.862 22.6062 25.6286 22.3195 26.3219C22.0329 27.0153 21.6428 27.612 21.1495 28.1119C20.6562 28.6053 20.0762 28.9886 19.4096 29.262C18.7495 29.5353 18.0395 29.6719 17.2795 29.6719C16.5262 29.6719 15.8162 29.532 15.1495 29.252C14.4896 28.972 13.9095 28.582 13.4096 28.0819C12.9162 27.582 12.5262 26.9886 12.2395 26.302C11.9529 25.6086 11.8096 24.8486 11.8096 24.022V14.502H14.5495V19.502C14.6962 19.3153 14.8729 19.1486 15.0795 19.0019C15.2929 18.8553 15.5195 18.7353 15.7595 18.6419C16.0062 18.5486 16.2596 18.4786 16.5195 18.4319C16.7796 18.3786 17.0329 18.3519 17.2795 18.3519C18.0395 18.3519 18.7495 18.4953 19.4096 18.782C20.0762 19.062 20.6562 19.4553 21.1495 19.9619C21.6428 20.4686 22.0329 21.0686 22.3195 21.7619C22.6062 22.4486 22.7495 23.2019 22.7495 24.022ZM19.9995 24.022C19.9995 23.6086 19.9262 23.2253 19.7796 22.8719C19.6395 22.5119 19.4462 22.2019 19.1995 21.942C18.9529 21.6819 18.6629 21.4786 18.3296 21.332C18.0029 21.1853 17.6529 21.1119 17.2795 21.1119C16.9062 21.1119 16.5529 21.1953 16.2196 21.3619C15.8929 21.5219 15.6062 21.7386 15.3595 22.012C15.1129 22.2786 14.9195 22.5886 14.7796 22.942C14.6395 23.2886 14.5696 23.6486 14.5696 24.022C14.5696 24.4353 14.6395 24.8186 14.7796 25.172C14.9195 25.5253 15.1129 25.8319 15.3595 26.092C15.6062 26.3519 15.8929 26.5586 16.2196 26.7119C16.5529 26.8586 16.9062 26.932 17.2795 26.932C17.6529 26.932 18.0029 26.8586 18.3296 26.7119C18.6629 26.5586 18.9529 26.3519 19.1995 26.092C19.4462 25.8319 19.6395 25.5253 19.7796 25.172C19.9262 24.8186 19.9995 24.4353 19.9995 24.022Z" fill="#F9F7F7"/>
</svg>
