<svg width="14" height="16" viewBox="0 0 14 16" fill="none" xmlns="http://www.w3.org/2000/svg">
<path d="M7.3808 2.6552C8.70112 2.6552 9.7689 3.68841 9.7689 4.96233V7.27279H4.99271V4.96233C4.99271 3.68841 6.06048 2.6552 7.3808 2.6552ZM11.5041 7.28953V4.94562C11.5041 2.74548 9.65706 0.959961 7.3808 0.959961C5.10455 0.959961 3.25754 2.74548 3.25754 4.94562V7.28953C2.45671 7.39654 1.83984 8.05522 1.83984 8.85772V14.134C1.83984 15.0067 2.57575 15.7189 3.48122 15.7189H11.2804C12.1859 15.7189 12.9218 15.0067 12.9218 14.134V8.85772C12.9218 8.05522 12.3049 7.39654 11.5041 7.28953Z" fill="#171619"/>
<path d="M6.10053 2.01555C7.42085 2.01555 8.48863 3.04874 8.48863 4.32268V6.63314H3.71243V4.32268C3.71243 3.04874 4.78021 2.01555 6.10053 2.01555ZM10.2238 6.64988V4.30598C10.2238 2.10583 8.37679 0.320312 6.10053 0.320312C3.82427 0.320312 1.97727 2.10583 1.97727 4.30598V6.64988C1.17643 6.75689 0.55957 7.41558 0.55957 8.21807V13.4944C0.55957 14.3671 1.29547 15.0793 2.20095 15.0793H10.0001C10.9056 15.0793 11.6415 14.3671 11.6415 13.4944V8.21807C11.6415 7.41558 11.0246 6.75689 10.2238 6.64988Z" fill="#3F72AF"/>
<path d="M9.37526 12.011C9.37526 12.431 9.30358 12.8143 9.16025 13.161C9.01692 13.5076 8.82191 13.806 8.57526 14.056C8.3286 14.3027 8.03859 14.4943 7.70527 14.631C7.37526 14.7676 7.02025 14.836 6.64025 14.836C6.26358 14.836 5.9086 14.766 5.57526 14.626C5.24527 14.486 4.95526 14.291 4.70527 14.041C4.45859 13.791 4.26358 13.4943 4.12025 13.151C3.97692 12.8043 3.90527 12.4243 3.90527 12.011V7.25098H5.27526V9.75098C5.3486 9.65763 5.43692 9.5743 5.54025 9.50096C5.64694 9.42765 5.76025 9.36765 5.88025 9.32096C6.00358 9.2743 6.13027 9.2393 6.26025 9.21597C6.39027 9.18931 6.51692 9.17597 6.64025 9.17597C7.02025 9.17597 7.37526 9.24765 7.70527 9.39098C8.03859 9.53098 8.3286 9.72765 8.57526 9.98096C8.82191 10.2343 9.01692 10.5343 9.16025 10.881C9.30358 11.2243 9.37526 11.601 9.37526 12.011ZM8.00025 12.011C8.00025 11.8043 7.96358 11.6126 7.89027 11.436C7.82025 11.256 7.72358 11.101 7.60025 10.971C7.47692 10.841 7.33193 10.7393 7.16527 10.666C7.00191 10.5926 6.82694 10.556 6.64025 10.556C6.45359 10.556 6.27692 10.5976 6.11027 10.681C5.94694 10.761 5.80358 10.8693 5.68025 11.006C5.55692 11.1393 5.46025 11.2943 5.39027 11.471C5.32025 11.6443 5.28527 11.8243 5.28527 12.011C5.28527 12.2176 5.32025 12.4093 5.39027 12.586C5.46025 12.7627 5.55692 12.916 5.68025 13.046C5.80358 13.176 5.94694 13.2793 6.11027 13.356C6.27692 13.4293 6.45359 13.466 6.64025 13.466C6.82694 13.466 7.00191 13.4293 7.16527 13.356C7.33193 13.2793 7.47692 13.176 7.60025 13.046C7.72358 12.916 7.82025 12.7627 7.89027 12.586C7.96358 12.4093 8.00025 12.2176 8.00025 12.011Z" fill="#F9F7F7"/>
</svg>
